<?xml version="1.0" encoding="utf-8"?>
<!-- Generator: Adobe Illustrator 24.0.0, SVG Export Plug-In . SVG Version: 6.00 Build 0)  -->
<svg version="1.1" id="Layer_1" xmlns="http://www.w3.org/2000/svg" xmlns:xlink="http://www.w3.org/1999/xlink" x="0px" y="0px"
	 viewBox="0 0 1366 768" style="enable-background:new 0 0 1366 768;" xml:space="preserve">
<style type="text/css">
	.st0{fill:#F4BD7D;stroke:#F4BD7D;stroke-miterlimit:10;}
	.st1{fill:#FBB03B;stroke:#FBB03B;stroke-miterlimit:10;}
	.st2{fill:none;stroke:#F9EED9;stroke-width:4;stroke-miterlimit:10;}
	.st3{fill:none;stroke:#F4E3BE;stroke-width:5;stroke-miterlimit:10;}
	.st4{fill:#F4E3BE;}
	.st5{fill:#F9EED9;}
	.st6{fill:none;stroke:#F4E3BE;stroke-width:18;stroke-miterlimit:10;}
</style>
<path class="st0" d="M446.5,458.5"/>
<path class="st1" d="M663.22,344.72c6.89-3.67,15.84-2.21,21.32,4c4.31,4.88,5.74,11.86,4.04,17.93c-1.89,6.77-6.97,9.96-8.21,10.69
	c-1.2,0.74-6.81,4.03-13.59,2.02c-7.18-2.13-12.49-9.26-13-17.14C653.3,354.75,657.21,347.92,663.22,344.72z"/>
<path class="st1" d="M1115.5,474.5"/>
<path class="st2" d="M647.12,357.91"/>
<path class="st3" d="M712.01,358.54c8.75-1.52,15.7,2.16,17.95,3.47c4.3,4.85,5.49,11.55,3.02,17.05c-2.71,6.05-8.66,7.98-9.64,8.28
	c-2.64,1.26-6.86,2.87-12.27,3.29c-4.07,0.31-7.51-0.15-9.98-0.69c-5.71-5.11-8.29-12.54-6.38-19
	C697.65,361.03,709.54,358.97,712.01,358.54z"/>
<g>
	<g>
		<path class="st4" d="M717.18,374.92c1.93,0,1.93-3,0-3C715.25,371.92,715.24,374.92,717.18,374.92L717.18,374.92z"/>
	</g>
</g>
<g>
	<g>
		<path class="st4" d="M717.18,374.92c1.93,0,1.93-3,0-3C715.25,371.92,715.24,374.92,717.18,374.92L717.18,374.92z"/>
	</g>
</g>
<g>
	<g>
		<path class="st4" d="M718.62,376.76c1.93,0,1.93-3,0-3C716.69,373.76,716.69,376.76,718.62,376.76L718.62,376.76z"/>
	</g>
</g>
<g>
	<g>
		<path class="st4" d="M720.13,377.63c1.93,0,1.93-3,0-3C718.2,374.63,718.19,377.63,720.13,377.63L720.13,377.63z"/>
	</g>
</g>
<g>
	<g>
		<path class="st4" d="M712.64,404.82c3.72,0.14,7.18-0.63,10.4-2.33c3.35-1.09,6.24-2.95,8.69-5.58c2.63-2.45,4.49-5.34,5.58-8.69
			c1.69-3.22,2.47-6.69,2.33-10.4c-0.32-2.39-0.64-4.79-0.96-7.18c-1.28-4.57-3.6-8.55-6.94-11.91c-1.82-1.41-3.64-2.81-5.46-4.22
			c-4.21-2.44-8.75-3.67-13.63-3.69c-3.72-0.14-7.18,0.63-10.4,2.33c-3.35,1.09-6.24,2.95-8.69,5.58c-2.63,2.45-4.49,5.34-5.58,8.69
			c-1.69,3.22-2.47,6.69-2.33,10.4c0.32,2.39,0.64,4.79,0.96,7.18c1.28,4.57,3.6,8.55,6.94,11.91c1.82,1.41,3.64,2.81,5.46,4.22
			C703.23,403.57,707.77,404.8,712.64,404.82L712.64,404.82z"/>
	</g>
</g>
<g>
	<g>
		<path class="st4" d="M723.97,402.74c0.2-0.05,0.39-0.11,0.59-0.16c3.51-0.84,6.57-2.45,9.18-4.83c2.94-1.9,5.26-4.43,6.95-7.58
			c1.97-3.1,3.04-6.45,3.2-10.04c0.8-3.59,0.64-7.18-0.48-10.77c-0.91-2.15-1.81-4.3-2.72-6.45c-2.4-4.06-5.63-7.29-9.69-9.69
			c-2.15-0.91-4.3-1.81-6.45-2.72c-4.79-1.29-9.57-1.29-14.36,0c-0.2,0.05-0.39,0.11-0.59,0.16c-3.51,0.84-6.57,2.45-9.18,4.83
			c-2.94,1.9-5.26,4.43-6.95,7.58c-1.97,3.1-3.04,6.45-3.2,10.04c-0.8,3.59-0.64,7.18,0.48,10.77c0.91,2.15,1.81,4.3,2.72,6.45
			c2.4,4.06,5.63,7.29,9.69,9.69c2.15,0.91,4.3,1.81,6.45,2.72C714.4,404.03,719.18,404.03,723.97,402.74L723.97,402.74z"/>
	</g>
</g>
<g>
	<g>
		<path class="st4" d="M725.31,392.23c0.49-0.13,0.99-0.26,1.48-0.4c3.51-0.84,6.57-2.45,9.18-4.83c2.94-1.9,5.26-4.43,6.95-7.58
			c1.97-3.1,3.04-6.45,3.2-10.04c0.8-3.59,0.64-7.18-0.48-10.77c-0.91-2.15-1.81-4.3-2.72-6.45c-2.4-4.06-5.63-7.29-9.69-9.69
			c-2.15-0.91-4.3-1.81-6.45-2.72c-4.79-1.29-9.57-1.29-14.36,0c-0.49,0.13-0.99,0.26-1.48,0.4c-3.51,0.84-6.57,2.45-9.18,4.83
			c-2.94,1.9-5.26,4.43-6.95,7.58c-1.97,3.1-3.04,6.45-3.2,10.04c-0.8,3.59-0.64,7.18,0.48,10.77c0.91,2.15,1.81,4.3,2.72,6.45
			c2.4,4.06,5.63,7.29,9.69,9.69c2.15,0.91,4.3,1.81,6.45,2.72C715.74,393.51,720.53,393.51,725.31,392.23L725.31,392.23z"/>
	</g>
</g>
<g>
	<g>
		<path class="st4" d="M726.38,399.22c3.72,0.14,7.18-0.63,10.4-2.33c3.35-1.09,6.24-2.95,8.69-5.58c2.63-2.45,4.49-5.34,5.58-8.69
			c1.69-3.22,2.47-6.69,2.33-10.4c-0.32-2.39-0.64-4.79-0.96-7.18c-1.28-4.57-3.6-8.55-6.94-11.91c-1.82-1.41-3.64-2.81-5.46-4.22
			c-4.21-2.44-8.75-3.67-13.63-3.69c-3.72-0.14-7.18,0.63-10.4,2.33c-3.35,1.09-6.24,2.95-8.69,5.58c-2.63,2.45-4.49,5.34-5.58,8.69
			c-1.69,3.22-2.47,6.69-2.33,10.4c0.32,2.39,0.64,4.79,0.96,7.18c1.28,4.57,3.6,8.55,6.94,11.91c1.82,1.41,3.64,2.81,5.46,4.22
			C716.96,397.98,721.5,399.21,726.38,399.22L726.38,399.22z"/>
	</g>
</g>
<g>
	<g>
		<path class="st4" d="M740.48,346.78c-0.08-0.05-0.16-0.11-0.25-0.16c1.82,1.41,3.64,2.81,5.46,4.22
			c-0.15-0.12-0.28-0.25-0.39-0.41c1.41,1.82,2.81,3.64,4.22,5.46c-0.16-0.26-0.29-0.5-0.41-0.78c0.91,2.15,1.81,4.3,2.72,6.45
			c-2.01-5.36-3.85-10.41-8.2-14.44c-0.95-0.83-1.95-1.61-2.99-2.33c-0.97-0.82-1.97-1.58-3.01-2.31c-1.21-0.69-2.58-1.15-3.83-1.68
			c-1.68-0.71-3.17-1.52-4.93-1.82c-3.83-0.65-7.8-1.29-11.71-1.18c-4,0.12-8.04,0.81-11.95,1.43c-1.53,0.24-3.06,0.55-4.51,1.09
			c-2.67,0.98-5.44,2.07-7.96,3.38c-2.47,1.28-5.65,3.98-7.17,5.32c-2.6,2.28-4.94,5.13-6.45,8.23c-1.04,2.15-2.18,4.7-2.95,6.96
			c-0.12,0.35-0.23,0.7-0.32,1.06c-0.23,1.31-0.41,2.63-0.54,3.95c-0.21,1.31-0.38,2.63-0.52,3.96c-0.01,0.37-0.01,0.74,0.03,1.11
			c9-9,18-18,27-27c-0.07,0-0.14-0.01-0.21-0.01c4.54,1.23,9.08,2.46,13.63,3.69c-0.06-0.03-0.12-0.06-0.18-0.09
			c1.82,1.41,3.64,2.81,5.46,4.22c-0.05-0.05-0.09-0.1-0.14-0.15c1.41,1.82,2.81,3.64,4.22,5.46c-0.03-0.06-0.07-0.13-0.1-0.19
			c0.91,2.15,1.81,4.3,2.72,6.45c-0.02-0.07-0.03-0.14-0.05-0.22c0.32,2.39,0.64,4.79,0.96,7.18c0-0.07,0-0.15,0-0.22
			c-0.32,2.39-0.64,4.79-0.96,7.18c0.02-0.07,0.04-0.13,0.06-0.2c-0.91,2.15-1.81,4.3-2.72,6.45c0.04-0.05,0.08-0.11,0.12-0.16
			c-3.23,3.23-6.46,6.46-9.69,9.69c0.06-0.04,0.12-0.07,0.19-0.11c-13.54-7.77-27.08-15.54-40.63-23.31
			c0.08,2.39,0.06,4.8,0.28,7.18c0.58,6.28,1.05,9.74,4.11,15.31c2.51,4.58,6.51,8.55,11.02,11.17c4.5,2.62,10.55,4.34,15.77,4.04
			c3.24-0.19,6.45-0.77,9.65-1.33c2.59-0.46,5.18-0.91,7.76-1.37c-10.16-13.22-20.33-26.44-30.49-39.66
			c-0.07,0.09-0.14,0.19-0.2,0.28c1.41-1.82,2.81-3.64,4.22-5.46c-0.15,0.18-0.32,0.33-0.51,0.46c1.82-1.41,3.64-2.81,5.46-4.22
			c-0.19,0.13-0.39,0.24-0.6,0.33c2.15-0.91,4.3-1.81,6.45-2.72c-0.21,0.09-0.44,0.15-0.66,0.18c2.39-0.32,4.79-0.64,7.18-0.96
			c-0.23,0.03-0.46,0.04-0.69,0.02c2.39,0.32,4.79,0.64,7.18,0.96c-0.23-0.02-0.45-0.07-0.67-0.15
			c-2.39,17.68-4.79,35.36-7.18,53.04c7.73-0.11,15.95-2.17,22.52-6.36c2.49-1.59,4.85-3.53,7.11-5.41
			c0.66-0.55,1.29-1.14,1.87-1.78c2.58-2.85,5.19-5.94,6.88-9.44c-15.54,0-31.08,0-46.63,0c0.04,0.09,0.09,0.17,0.13,0.26
			c-0.91-2.15-1.81-4.3-2.72-6.45c0.03,0.09,0.06,0.18,0.08,0.28c-0.32-2.39-0.64-4.79-0.96-7.18c0.04,0.19,0.05,0.38,0.03,0.57
			c0.32-2.39,0.64-4.79,0.96-7.18c-0.02,0.2-0.06,0.38-0.13,0.57c0.91-2.15,1.81-4.3,2.72-6.45c-0.07,0.19-0.16,0.36-0.27,0.52
			c1.41-1.82,2.81-3.64,4.22-5.46c-0.11,0.16-0.24,0.31-0.39,0.43c1.82-1.41,3.64-2.81,5.46-4.22c-0.15,0.13-0.31,0.23-0.49,0.3
			c2.15-0.91,4.3-1.81,6.45-2.72c-0.18,0.08-0.37,0.12-0.56,0.13c-3.51,0.84-6.57,2.45-9.18,4.83c-2.94,1.9-5.26,4.43-6.95,7.58
			c-1.97,3.1-3.04,6.45-3.2,10.04c-0.8,3.59-0.64,7.18,0.48,10.77c0.91,2.15,1.81,4.3,2.72,6.45c2.4,4.06,5.63,7.29,9.69,9.69
			c2.15,0.91,4.3,1.81,6.45,2.72c4.79,1.29,9.57,1.29,14.36,0c2.68-0.36,5.19-1.76,7.5-3.15c4.1-2.47,4.08-2.69,5.85-4.65
			c1.41-1.82,2.81-3.64,4.22-5.46c0.09-0.12,0.16-0.25,0.21-0.39c0.49-1.11,0.97-2.23,1.42-3.36c0.61-1.12,1.09-2.29,1.45-3.51
			c0.76-2.41,1.1-5.08,1.01-7.61c0.01-0.14,0-0.29-0.04-0.43c-0.32-2.39-0.64-4.79-0.96-7.18c-0.55-2.46-1.79-4.74-2.94-6.99
			c-2.4-4.06-5.63-7.29-9.69-9.69c-4.21-2.44-8.75-3.67-13.63-3.69c-4.87,0.02-9.42,1.24-13.63,3.69c-4.06,2.4-7.29,5.63-9.69,9.69
			c-0.48,1-1.06,1.94-1.72,2.84c1.41-1.82,2.81-3.64,4.22-5.46c-0.91,1.18-1.94,2.22-3.11,3.14c1.82-1.41,3.64-2.81,5.46-4.22
			c-1.18,0.9-2.44,1.65-3.8,2.26c2.15-0.91,4.3-1.81,6.45-2.72c-1.37,0.58-2.77,0.98-4.24,1.21c2.39-0.32,4.79-0.64,7.18-0.96
			c-0.73,0.1-1.47,0.15-2.21,0.16c-3.72-0.14-7.18,0.63-10.4,2.33c-3.35,1.09-6.24,2.95-8.69,5.58c-1.41,1.82-2.81,3.64-4.22,5.46
			c-1.97,3.1-3.04,6.45-3.2,10.04c-0.64,2.39-0.64,4.79,0,7.18c0.16,3.59,1.23,6.94,3.2,10.04c1.41,1.82,2.81,3.64,4.22,5.46
			c3.37,3.35,7.34,5.66,11.91,6.94c5.3,1.58,11.08,1.41,16.38-0.05c4.95-1.37,8.78-3.83,12.52-7.27c1.94-1.79,3.36-4.07,4.93-6.21
			c0.91-2.15,1.81-4.3,2.72-6.45c0.32-2.39,0.64-4.79,0.96-7.18c-0.32-2.39-0.64-4.79-0.96-7.18c-0.84-3.51-2.45-6.57-4.83-9.18
			c-1.2-2.03-2.81-3.64-4.84-4.84c-1.68-1.67-3.67-2.83-5.96-3.47c-2.11-1.22-4.38-1.84-6.81-1.84c-3.59-0.8-7.18-0.64-10.77,0.48
			c-3.16,0.56-6.31,1.18-9.48,1.66c2.39-0.32,4.79-0.64,7.18-0.96c-0.63,0.08-1.24,0.11-1.87,0.04c2.39,0.32,4.79,0.64,7.18,0.96
			c-0.24-0.03-0.47-0.09-0.7-0.18c2.15,0.91,4.3,1.81,6.45,2.72c-0.23-0.08-0.44-0.2-0.64-0.34c1.82,1.41,3.64,2.81,5.46,4.22
			c-0.18-0.13-0.35-0.28-0.5-0.45c1.41,1.82,2.81,3.64,4.22,5.46c-0.21-0.28-0.37-0.53-0.52-0.84c0.91,2.15,1.81,4.3,2.72,6.45
			c-0.21-0.55-0.34-1.1-0.42-1.68c0.32,2.39,0.64,4.79,0.96,7.18c-0.25-2.37-0.2-4.8-0.28-7.18c-0.3-9.6-4.96-18.39-13.37-23.31
			c-8.38-4.91-18.86-4.82-27.25,0c-4.14,2.38-5.26,3.82-7.76,7.06c-2.78,3.6-1.81,1.9-3.59,6.12c-0.61,1.09-1.09,2.23-1.42,3.43
			c-0.32,2.39-0.64,4.79-0.96,7.18c-0.12,2.52,0.23,5.11,0.99,7.5c0.37,1.16,2.23,5.58,2.8,6.66c1.12,2.12,2.64,4.1,4.41,5.71
			c1.21,1.11,4.28,3.45,5.64,4.31c3.1,1.97,6.45,3.04,10.04,3.2c1.26,0.27,2.52,0.43,3.8,0.49c3.72,0.14,7.18-0.63,10.4-2.33
			c3.35-1.09,6.24-2.95,8.69-5.58c1.41-1.82,2.81-3.64,4.22-5.46c2.44-4.21,3.67-8.75,3.69-13.63c-0.05-0.5-0.04-0.98,0.01-1.48
			c-0.32,2.39-0.64,4.79-0.96,7.18c0.08-0.49,0.21-0.95,0.38-1.43c-0.91,2.15-1.81,4.3-2.72,6.45c0.3-0.7,0.67-1.33,1.13-1.94
			c-1.41,1.82-2.81,3.64-4.22,5.46c0.41-0.49,0.84-0.93,1.33-1.34c-1.82,1.41-3.64,2.81-5.46,4.22c0.76-0.59,1.57-1.05,2.45-1.45
			c-2.15,0.91-4.3,1.81-6.45,2.72c1.99-0.83,4.1-1.24,6.23-1.54c-2.39,0.32-4.79,0.64-7.18,0.96c2.66-0.34,5.34-0.46,8.01-0.16
			c-2.39-0.32-4.79-0.64-7.18-0.96c0.71,0.1,1.39,0.25,2.06,0.51c-2.15-0.91-4.3-1.81-6.45-2.72c0.32,0.15,0.6,0.31,0.89,0.51
			c-1.82-1.41-3.64-2.81-5.46-4.22c0.18,0.14,0.34,0.29,0.49,0.47c-1.41-1.82-2.81-3.64-4.22-5.46c0.2,0.27,0.34,0.51,0.49,0.82
			c-0.91-2.15-1.81-4.3-2.72-6.45c1.11,2.74,1.95,5.53,3.37,8.18c2.51,4.67,6.23,7.94,10.61,10.76c3.1,1.97,6.45,3.04,10.04,3.2
			c3.59,0.8,7.18,0.64,10.77-0.48c3.51-0.84,6.57-2.45,9.18-4.83c2.94-1.9,5.26-4.43,6.95-7.58c0.91-2.15,1.81-4.3,2.72-6.45
			c1.29-4.79,1.29-9.57,0-14.36c-0.91-2.15-1.81-4.3-2.72-6.45C747.77,352.41,744.54,349.18,740.48,346.78L740.48,346.78z"/>
	</g>
</g>
<g>
	<g>
		<path class="st4" d="M724.71,406.04c3.72,0.14,7.18-0.63,10.4-2.33c3.35-1.09,6.24-2.95,8.69-5.58c2.63-2.45,4.49-5.34,5.58-8.69
			c1.69-3.22,2.47-6.69,2.33-10.4c-0.32-2.39-0.64-4.79-0.96-7.18c-1.28-4.57-3.6-8.55-6.94-11.91c-1.82-1.41-3.64-2.81-5.46-4.22
			c-4.21-2.44-8.75-3.67-13.63-3.69c-3.72-0.14-7.18,0.63-10.4,2.33c-3.35,1.09-6.24,2.95-8.69,5.58c-2.63,2.45-4.49,5.34-5.58,8.69
			c-1.69,3.22-2.47,6.69-2.33,10.4c0.32,2.39,0.64,4.79,0.96,7.18c1.28,4.57,3.6,8.55,6.94,11.91c1.82,1.41,3.64,2.81,5.46,4.22
			C715.3,404.8,719.84,406.03,724.71,406.04L724.71,406.04z"/>
	</g>
</g>
<g>
	<g>
		<path class="st4" d="M712,410.72c3.72,0.14,7.18-0.63,10.4-2.33c3.35-1.09,6.24-2.95,8.69-5.58c2.63-2.45,4.49-5.34,5.58-8.69
			c1.69-3.22,2.47-6.69,2.33-10.4c-0.32-2.39-0.64-4.79-0.96-7.18c-1.28-4.57-3.6-8.55-6.94-11.91c-1.82-1.41-3.64-2.81-5.46-4.22
			c-4.21-2.44-8.75-3.67-13.63-3.69c-3.72-0.14-7.18,0.63-10.4,2.33c-3.35,1.09-6.24,2.95-8.69,5.58c-2.63,2.45-4.49,5.34-5.58,8.69
			c-1.69,3.22-2.47,6.69-2.33,10.4c0.32,2.39,0.64,4.79,0.96,7.18c1.28,4.57,3.6,8.55,6.94,11.91c1.82,1.41,3.64,2.81,5.46,4.22
			C702.59,409.48,707.13,410.71,712,410.72L712,410.72z"/>
	</g>
</g>
<g>
	<g>
		<path class="st5" d="M694.73,361.37c-0.92,1.27-1.53,2.62-2.13,4.06c-0.61,1.44-1.12,2.83-1.38,4.38
			c-0.61,3.72-0.7,7.38,0.4,11.04c1.8,6.02,6.18,11.64,11.95,14.31c2.25,1.04,4.46,1.59,6.94,0.91c2.09-0.57,4.35-2.19,5.38-4.14
			c1.1-2.09,1.66-4.62,0.91-6.94c-0.68-2.11-2.04-4.41-4.14-5.38c-0.97-0.45-1.87-0.99-2.72-1.62c0.61,0.47,1.21,0.94,1.82,1.41
			c-1.01-0.79-1.9-1.68-2.7-2.68c0.47,0.61,0.94,1.21,1.41,1.82c-0.77-1.02-1.41-2.11-1.91-3.29c0.3,0.72,0.6,1.43,0.91,2.15
			c-0.46-1.13-0.76-2.29-0.94-3.49c0.11,0.8,0.21,1.6,0.32,2.39c-0.15-1.26-0.14-2.51,0.01-3.77c-0.11,0.8-0.21,1.6-0.32,2.39
			c0.18-1.26,0.5-2.46,0.97-3.64c-0.3,0.72-0.6,1.43-0.91,2.15c0.45-1.06,1.01-2.05,1.68-2.98c1.29-1.79,1.47-4.9,0.91-6.94
			c-0.57-2.09-2.19-4.35-4.14-5.38c-2.09-1.1-4.62-1.66-6.93-0.91c-0.72,0.3-1.43,0.6-2.15,0.91
			C696.61,358.95,695.53,360.02,694.73,361.37L694.73,361.37z"/>
	</g>
</g>
<g>
	<g>
		<path class="st4" d="M701.24,362.99c-1.32,5.77-2.53,11.73-1.22,17.62c1.09,4.86,4.13,9.6,8.67,11.87
			c2.1,1.05,4.97,0.63,6.16-1.61c1.13-2.13,0.57-4.92-1.61-6.16c-0.49-0.28-0.97-0.57-1.43-0.89c-0.08-0.05-0.7-0.54-0.3-0.21
			c0.41,0.34-0.2-0.18-0.27-0.24c-0.42-0.37-0.83-0.76-1.21-1.17c-0.2-0.22-1.04-1.24-0.5-0.53c-0.64-0.85-1.2-1.76-1.67-2.71
			c-0.19-0.38-0.32-0.71-0.09-0.12c-0.09-0.23-0.18-0.47-0.27-0.7c-0.19-0.53-0.35-1.07-0.48-1.62c-0.06-0.25-0.11-0.5-0.16-0.75
			c-0.02-0.09-0.13-0.93-0.08-0.41c0.06,0.53-0.02-0.32-0.02-0.41c-0.02-0.34-0.04-0.68-0.04-1.02c0-0.54,0.03-1.08,0.07-1.62
			c0.03-0.43,0.07-0.45-0.01-0.01c0.06-0.33,0.12-0.67,0.19-1c0.12-0.53,0.26-1.05,0.42-1.57c0.1-0.32,0.23-0.64,0.34-0.96
			c-0.15,0.42-0.14,0.3,0.03-0.04c0.54-1.1,1.16-2.13,1.9-3.11c1.43-1.88,0.36-5.11-1.61-6.16c-2.37-1.25-4.63-0.4-6.16,1.61
			c-3.79,4.99-5.01,11.78-3.55,17.83c1.37,5.68,5.28,10.7,10.35,13.57c1.51-2.59,3.03-5.18,4.54-7.77
			c-0.44-0.22-0.84-0.47-1.26-0.72c-0.41-0.29-0.39-0.27,0.05,0.06c-0.18-0.15-0.36-0.31-0.54-0.48c-0.31-0.29-0.57-0.62-0.87-0.92
			c-0.21-0.25-0.16-0.18,0.14,0.2c-0.14-0.2-0.28-0.4-0.41-0.6c-0.27-0.41-0.51-0.84-0.73-1.27c-0.11-0.22-0.22-0.44-0.32-0.67
			c0.21,0.51,0.22,0.52,0.03,0.05c-0.27-0.83-0.53-1.64-0.7-2.5c-0.05-0.24-0.09-0.48-0.13-0.73c0.08,0.63,0.08,0.62,0.01-0.01
			c-0.03-0.48-0.07-0.96-0.08-1.45c-0.03-1.29,0.05-2.57,0.2-3.85c-0.08,0.72,0.09-0.59,0.11-0.72c0.1-0.64,0.22-1.28,0.35-1.91
			c0.25-1.27,0.54-2.54,0.83-3.8c0.52-2.29-0.7-4.98-3.14-5.54C704.49,359.32,701.81,360.53,701.24,362.99L701.24,362.99z"/>
	</g>
</g>
<g>
	<g>
		<path class="st4" d="M701.02,360.54c-2.39,5.45-2.18,11.01-1.11,16.76c0.98,5.3,3.61,11.11,9.44,12.36
			c2.3,0.49,4.97-0.68,5.54-3.14c0.52-2.27-0.68-5.01-3.14-5.54c-0.21-0.04-0.42-0.09-0.63-0.16c-0.47-0.17-0.41-0.14,0.19,0.08
			c-0.19-0.1-0.38-0.21-0.56-0.33c-0.4-0.28-0.36-0.25,0.14,0.11c-0.06,0-1.37-1.29-0.4-0.3c-0.22-0.22-0.38-0.55-0.54-0.82
			c-0.13-0.23-0.25-0.46-0.36-0.69c0.19,0.48,0.19,0.48,0,0c-0.17-0.5-0.33-0.99-0.46-1.49c-0.25-0.95-0.44-1.91-0.61-2.88
			c-0.08-0.45-0.15-0.91-0.23-1.37c-0.08-0.53-0.08-0.52,0,0.02c-0.03-0.26-0.06-0.53-0.09-0.79c-0.1-0.98-0.15-1.97-0.14-2.96
			c0.01-0.46,0.02-0.91,0.06-1.37c0.02-0.26,0.04-0.52,0.07-0.77c-0.08,0.55-0.07,0.57,0.01,0.05c0.12-0.5,0.21-1.01,0.36-1.5
			c0.05-0.18,0.63-1.68,0.22-0.75c0.94-2.15,0.7-4.93-1.61-6.16C705.23,357.9,702.03,358.24,701.02,360.54L701.02,360.54z"/>
	</g>
</g>
<g>
	<g>
		<path class="st4" d="M724.74,398.19c3.72,0.14,7.18-0.63,10.4-2.33c3.35-1.09,6.24-2.95,8.69-5.58c2.63-2.45,4.49-5.34,5.58-8.69
			c1.69-3.22,2.47-6.69,2.33-10.4c-0.32-2.39-0.64-4.79-0.96-7.18c-1.28-4.57-3.6-8.55-6.94-11.91c-1.82-1.41-3.64-2.81-5.46-4.22
			c-4.21-2.44-8.75-3.67-13.63-3.69c-3.72-0.14-7.18,0.63-10.4,2.33c-3.35,1.09-6.24,2.95-8.69,5.58c-2.63,2.45-4.49,5.34-5.58,8.69
			c-1.69,3.22-2.47,6.69-2.33,10.4c0.32,2.39,0.64,4.79,0.96,7.18c1.28,4.57,3.6,8.55,6.94,11.91c1.82,1.41,3.64,2.81,5.46,4.22
			C715.32,396.95,719.87,398.18,724.74,398.19L724.74,398.19z"/>
	</g>
</g>
<path class="st3" d="M665.06,317.34c3.06-8.34,9.72-12.52,11.98-13.81c6.35-1.3,12.75,1.02,16.28,5.91
	c3.88,5.37,2.58,11.49,2.35,12.49c-0.23,2.91-0.94,7.38-3.29,12.27c-1.76,3.68-3.88,6.42-5.59,8.3c-7.28,2.39-15.01,0.91-19.64-3.97
	C660.03,331.03,664.2,319.7,665.06,317.34z"/>
<g>
	<g>
		<path class="st4" d="M680.52,321.81c1.93,0,1.93-3,0-3C678.59,318.81,678.59,321.81,680.52,321.81L680.52,321.81z"/>
	</g>
</g>
<g>
	<g>
		<path class="st4" d="M680.52,321.81c1.93,0,1.93-3,0-3C678.59,318.81,678.59,321.81,680.52,321.81L680.52,321.81z"/>
	</g>
</g>
<g>
	<g>
		<path class="st4" d="M682.84,321.48c1.93,0,1.93-3,0-3C680.91,318.48,680.91,321.48,682.84,321.48L682.84,321.48z"/>
	</g>
</g>
<g>
	<g>
		<path class="st4" d="M684.35,320.61c1.93,0,1.93-3,0-3C682.42,317.61,682.41,320.61,684.35,320.61L684.35,320.61z"/>
	</g>
</g>
<g>
	<g>
		<path class="st4" d="M682.07,353.43c3.72,0.14,7.18-0.63,10.4-2.33c3.35-1.09,6.24-2.95,8.69-5.58c2.63-2.45,4.49-5.34,5.58-8.69
			c1.69-3.22,2.47-6.69,2.33-10.4c-0.32-2.39-0.64-4.79-0.96-7.18c-1.28-4.57-3.6-8.55-6.94-11.91c-1.82-1.41-3.64-2.81-5.46-4.22
			c-4.21-2.44-8.75-3.67-13.63-3.69c-3.72-0.14-7.18,0.63-10.4,2.33c-3.35,1.09-6.24,2.95-8.69,5.58c-2.63,2.45-4.49,5.34-5.58,8.69
			c-1.69,3.22-2.47,6.69-2.33,10.4c0.32,2.39,0.64,4.79,0.96,7.18c1.28,4.57,3.6,8.55,6.94,11.91c1.82,1.41,3.64,2.81,5.46,4.22
			C672.65,352.19,677.19,353.42,682.07,353.43L682.07,353.43z"/>
	</g>
</g>
<g>
	<g>
		<path class="st4" d="M709.21,329.46c0.05-0.2,0.11-0.39,0.16-0.59c1.13-3.59,1.29-7.18,0.48-10.77c-0.16-3.59-1.23-6.94-3.2-10.04
			c-1.7-3.15-4.01-5.67-6.95-7.58c-2.61-2.39-5.67-4-9.18-4.83c-2.39-0.32-4.79-0.64-7.18-0.96c-4.87,0.02-9.42,1.24-13.63,3.69
			c-1.82,1.41-3.64,2.81-5.46,4.22c-3.35,3.37-5.66,7.34-6.94,11.91c-0.05,0.2-0.11,0.39-0.16,0.59c-1.13,3.59-1.29,7.18-0.48,10.77
			c0.16,3.59,1.23,6.94,3.2,10.04c1.7,3.15,4.01,5.67,6.95,7.58c2.61,2.39,5.67,4,9.18,4.83c2.39,0.32,4.79,0.64,7.18,0.96
			c4.87-0.02,9.42-1.24,13.63-3.69c1.82-1.41,3.64-2.81,5.46-4.22C705.62,338.01,707.93,334.04,709.21,329.46L709.21,329.46z"/>
	</g>
</g>
<g>
	<g>
		<path class="st4" d="M700.78,323.04c0.13-0.49,0.26-0.99,0.4-1.48c1.13-3.59,1.29-7.18,0.48-10.77c-0.16-3.59-1.23-6.94-3.2-10.04
			c-1.7-3.15-4.01-5.67-6.95-7.58c-2.61-2.39-5.67-4-9.18-4.83c-2.39-0.32-4.79-0.64-7.18-0.96c-4.87,0.02-9.42,1.24-13.63,3.69
			c-1.82,1.41-3.64,2.81-5.46,4.22c-3.35,3.37-5.66,7.34-6.94,11.91c-0.13,0.49-0.26,0.99-0.4,1.48c-1.13,3.59-1.29,7.18-0.48,10.77
			c0.16,3.59,1.23,6.94,3.2,10.04c1.7,3.15,4.01,5.67,6.95,7.58c2.61,2.39,5.67,4,9.18,4.83c2.39,0.32,4.79,0.64,7.18,0.96
			c4.87-0.02,9.42-1.24,13.63-3.69c1.82-1.41,3.64-2.81,5.46-4.22C697.18,331.59,699.5,327.61,700.78,323.04L700.78,323.04z"/>
	</g>
</g>
<g>
	<g>
		<path class="st4" d="M684.09,338.74c3.72,0.14,7.18-0.63,10.4-2.33c3.35-1.09,6.24-2.95,8.69-5.58c2.63-2.45,4.49-5.34,5.58-8.69
			c1.69-3.22,2.47-6.69,2.33-10.4c-0.32-2.39-0.64-4.79-0.96-7.18c-1.28-4.57-3.6-8.55-6.94-11.91c-1.82-1.41-3.64-2.81-5.46-4.22
			c-4.21-2.44-8.75-3.67-13.63-3.69c-3.72-0.14-7.18,0.63-10.4,2.33c-3.35,1.09-6.24,2.95-8.69,5.58c-2.63,2.45-4.49,5.34-5.58,8.69
			c-1.69,3.22-2.47,6.69-2.33,10.4c0.32,2.39,0.64,4.79,0.96,7.18c1.28,4.57,3.6,8.55,6.94,11.91c1.82,1.41,3.64,2.81,5.46,4.22
			C674.68,337.5,679.22,338.73,684.09,338.74L684.09,338.74z"/>
	</g>
</g>
<g>
	<g>
		<path class="st4" d="M668.86,286.95c-0.11,0.05-0.23,0.11-0.34,0.16c2.15-0.91,4.3-1.81,6.45-2.72c-0.12,0.03-0.24,0.06-0.36,0.09
			c2.39-0.32,4.79-0.64,7.18-0.96c-0.25,0.03-0.5,0.04-0.75,0.01c2.39,0.32,4.79,0.64,7.18,0.96c-3-0.42-5.85-1.09-8.96-1.26
			c-1.52-0.08-3,0.29-4.52,0.49c-1.87,0.25-2.79,0.26-4.22,0.66c-5.2,1.47-10.8,4.69-14.23,8.92c-2.3,2.84-4.63,5.68-6.4,8.89
			c-1.85,3.36-3.25,7.02-4.65,10.56c-2.92,7.37-3.25,15.55-1.51,23.25c0.76,3.35,2.12,6.72,4.04,9.57c1.38,2.06,3.24,4.77,5.28,6.64
			c0.98,0.8,1.99,1.58,3,2.33c0.98,0.81,1.98,1.58,3.02,2.32c0.3,0.19,0.61,0.35,0.93,0.5c-3.23-12.31-6.46-24.63-9.69-36.94
			c-0.04,0.06-0.08,0.12-0.12,0.18c3.23-3.23,6.46-6.46,9.69-9.69c-0.06,0.04-0.11,0.07-0.17,0.11c2.15-0.91,4.3-1.81,6.45-2.72
			c-0.07,0.02-0.14,0.03-0.2,0.05c2.39-0.32,4.79-0.64,7.18-0.96c-0.07,0-0.15-0.01-0.22-0.01c2.39,0.32,4.79,0.64,7.18,0.96
			c-0.07-0.02-0.14-0.04-0.21-0.06c2.15,0.91,4.3,1.81,6.45,2.72c-0.06-0.04-0.13-0.07-0.19-0.11c1.82,1.41,3.64,2.81,5.46,4.22
			c-0.05-0.05-0.1-0.1-0.15-0.15c1.41,1.82,2.81,3.64,4.22,5.46c-0.03-0.06-0.05-0.12-0.08-0.18c1.23,4.54,2.46,9.08,3.69,13.63
			c0-0.07,0-0.14,0-0.21c-13.54,7.77-27.08,15.54-40.63,23.31c2.06,1.1,4.09,2.27,6.19,3.28c5.87,2.81,9.3,4,15.95,4.25
			c2.78,0.11,5.63-0.43,8.31-1.22c5.32-1.58,6.1-2.37,9.75-5.18c3.4-2.62,6.06-5.15,8.15-9.19c1.46-2.82,2.57-5.89,3.67-8.89
			c0.87-2.39,1.74-4.78,2.61-7.18c-16.45,2.15-32.9,4.3-49.35,6.45c0.05,0.11,0.09,0.21,0.14,0.32c-0.91-2.15-1.81-4.3-2.72-6.45
			c0.08,0.22,0.13,0.44,0.15,0.67c-0.32-2.39-0.64-4.79-0.96-7.18c0.02,0.23,0.02,0.46-0.02,0.69c0.32-2.39,0.64-4.79,0.96-7.18
			c-0.03,0.23-0.09,0.45-0.17,0.67c0.91-2.15,1.81-4.3,2.72-6.45c-0.08,0.21-0.19,0.42-0.32,0.6c1.41-1.82,2.81-3.64,4.22-5.46
			c-0.13,0.19-0.29,0.36-0.47,0.5c14.14,10.91,28.27,21.81,42.41,32.72c1.87-3.35,3.51-6.98,4.41-10.72
			c0.73-3.07,1.04-6.32,1.34-9.45c0.08-0.83,0.1-1.66,0.07-2.5c-0.17-3.91-0.57-7.96-1.77-11.71c-0.92-2.87-2.22-5.7-3.49-8.42
			c-0.38-0.82-0.84-1.59-1.34-2.33c-7.77,13.54-15.54,27.08-23.31,40.63c0.1,0.01,0.2,0.01,0.29,0.02
			c-2.39-0.32-4.79-0.64-7.18-0.96c0.19,0.03,0.37,0.09,0.55,0.17c-2.15-0.91-4.3-1.81-6.45-2.72c0.08,0.05,0.16,0.1,0.25,0.15
			c-1.82-1.41-3.64-2.81-5.46-4.22c0.16,0.11,0.3,0.25,0.43,0.4c-1.41-1.82-2.81-3.64-4.22-5.46c0.13,0.15,0.23,0.32,0.32,0.5
			c-0.91-2.15-1.81-4.3-2.72-6.45c0.08,0.18,0.14,0.36,0.18,0.55c-0.32-2.39-0.64-4.79-0.96-7.18c0.03,0.19,0.04,0.38,0.02,0.57
			c0.32-2.39,0.64-4.79,0.96-7.18c-0.02,0.19-0.08,0.38-0.17,0.55c-1.13,3.59-1.29,7.18-0.48,10.77c0.16,3.59,1.23,6.94,3.2,10.04
			c1.7,3.15,4.01,5.67,6.95,7.58c2.61,2.39,5.67,4,9.18,4.83c2.39,0.32,4.79,0.64,7.18,0.96c4.87-0.02,9.42-1.24,13.63-3.69
			c1.82-1.41,3.64-2.81,5.46-4.22c3.35-3.37,5.66-7.34,6.94-11.91c1.06-2.58,1.17-5.52,1.12-8.3c-0.09-4.95-0.3-5.11-1.14-7.73
			c-0.91-2.15-1.81-4.3-2.72-6.45c-0.06-0.14-0.14-0.26-0.23-0.38c-0.71-0.97-1.44-1.92-2.2-2.85c-0.68-1.06-1.45-2.04-2.31-2.95
			c-1.65-1.77-3.72-3.25-5.81-4.48c-4.88-2.85-8.99-3.66-14.59-3.95c-9.36-0.49-18.7,5.49-23.31,13.37
			c-2.44,4.21-3.67,8.75-3.69,13.63c0.02,4.87,1.24,9.42,3.69,13.63c0.65,0.96,1.2,1.97,1.65,3.03c-0.91-2.15-1.81-4.3-2.72-6.45
			c0.53,1.32,0.89,2.67,1.11,4.07c-0.32-2.39-0.64-4.79-0.96-7.18c0.22,1.66,0.22,3.32,0,4.98c0.32-2.39,0.64-4.79,0.96-7.18
			c-0.22,1.4-0.59,2.74-1.12,4.06c0.91-2.15,1.81-4.3,2.72-6.45c-0.26,0.59-0.54,1.16-0.85,1.72c-1.97,3.1-3.04,6.45-3.2,10.04
			c-0.8,3.59-0.64,7.18,0.48,10.77c0.91,2.15,1.81,4.3,2.72,6.45c1.7,3.15,4.01,5.67,6.95,7.58c1.68,1.67,3.67,2.83,5.96,3.47
			c3.22,1.69,6.69,2.47,10.4,2.33c2.39-0.32,4.79-0.64,7.18-0.96c4.57-1.28,8.55-3.6,11.91-6.94c3.8-3.6,6.59-8.65,7.91-13.69
			c1.39-5.32,1.22-9.72,0.02-15.04c-0.59-2.61-1.93-4.98-3.01-7.44c-1.41-1.82-2.81-3.64-4.22-5.46c-1.82-1.41-3.64-2.81-5.46-4.22
			c-2.15-0.91-4.3-1.81-6.45-2.72c-3.59-1.13-7.18-1.29-10.77-0.48c-2.44,0.01-4.71,0.62-6.81,1.84c-2.29,0.64-4.27,1.8-5.96,3.47
			c-2.03,1.2-3.64,2.81-4.84,4.84c-2.39,2.61-4,5.67-4.83,9.18c-1.13,3.1-2.15,6.26-3.41,9.3c0.91-2.15,1.81-4.3,2.72-6.45
			c-0.19,0.42-0.4,0.82-0.66,1.21c1.41-1.82,2.81-3.64,4.22-5.46c-0.21,0.27-0.42,0.5-0.68,0.73c1.82-1.41,3.64-2.81,5.46-4.22
			c-0.17,0.14-0.36,0.26-0.57,0.35c2.15-0.91,4.3-1.81,6.45-2.72c-0.24,0.11-0.49,0.18-0.75,0.22c2.39-0.32,4.79-0.64,7.18-0.96
			c-0.41,0.04-0.75,0.02-1.16-0.03c2.39,0.32,4.79,0.64,7.18,0.96c-0.54-0.12-1.04-0.29-1.55-0.5c2.15,0.91,4.3,1.81,6.45,2.72
			c-2.11-0.98-4.14-2.18-6.19-3.28c-4.21-2.44-8.75-3.67-13.63-3.69c-4.87,0.02-9.42,1.24-13.63,3.69
			c-8.23,4.81-13.35,13.79-13.37,23.31c-0.01,5.05,0.67,6.69,2.32,10.62c1.78,4.22,0.77,2.54,3.55,6.14
			c0.65,1.05,1.4,2.01,2.26,2.88c1.82,1.41,3.64,2.81,5.46,4.22c2.05,1.33,4.37,2.31,6.75,2.86c1.15,0.27,6.22,0.95,7.39,1
			c2.51,0.11,5.1-0.23,7.49-1.01c1.55-0.5,5.21-2.07,6.62-2.83c3.15-1.7,5.67-4.01,7.58-6.95c0.83-0.91,1.57-1.88,2.23-2.91
			c1.97-3.1,3.04-6.45,3.2-10.04c0.8-3.59,0.64-7.18-0.48-10.77c-0.91-2.15-1.81-4.3-2.72-6.45c-2.4-4.06-5.63-7.29-9.69-9.69
			c-0.44-0.2-0.83-0.43-1.22-0.71c1.82,1.41,3.64,2.81,5.46,4.22c-0.46-0.38-0.86-0.78-1.23-1.25c1.41,1.82,2.81,3.64,4.22,5.46
			c-0.35-0.49-0.64-1-0.89-1.55c0.91,2.15,1.81,4.3,2.72,6.45c-0.27-0.67-0.47-1.35-0.59-2.07c0.32,2.39,0.64,4.79,0.96,7.18
			c-0.14-1.06-0.12-2.09,0.01-3.14c-0.32,2.39-0.64,4.79-0.96,7.18c0.33-2.17,1.07-4.22,1.91-6.24c-0.91,2.15-1.81,4.3-2.72,6.45
			c1.01-2.35,2.23-4.64,3.76-6.7c-1.41,1.82-2.81,3.64-4.22,5.46c0.44-0.55,0.9-1.05,1.45-1.48c-1.82,1.41-3.64,2.81-5.46,4.22
			c0.29-0.19,0.55-0.35,0.87-0.49c-2.15,0.91-4.3,1.81-6.45,2.72c0.21-0.08,0.42-0.14,0.64-0.18c-2.39,0.32-4.79,0.64-7.18,0.96
			c0.39-0.04,0.73-0.03,1.13,0.01c-2.39-0.32-4.79-0.64-7.18-0.96c2.96,0.5,5.99,1.29,8.95,1.25c6.24-0.09,9.38-1.29,14.88-3.95
			c3.15-1.7,5.67-4.01,7.58-6.95c2.39-2.61,4-5.67,4.83-9.18c1.13-3.59,1.29-7.18,0.48-10.77c-0.16-3.59-1.23-6.94-3.2-10.04
			c-1.41-1.82-2.81-3.64-4.22-5.46c-3.37-3.35-7.34-5.66-11.91-6.94c-2.39-0.32-4.79-0.64-7.18-0.96
			C677.61,283.28,673.07,284.51,668.86,286.95L668.86,286.95z"/>
	</g>
</g>
<g>
	<g>
		<path class="st4" d="M689.16,343.59c3.72,0.14,7.18-0.63,10.4-2.33c3.35-1.09,6.24-2.95,8.69-5.58c2.63-2.45,4.49-5.34,5.58-8.69
			c1.69-3.22,2.47-6.69,2.33-10.4c-0.32-2.39-0.64-4.79-0.96-7.18c-1.28-4.57-3.6-8.55-6.94-11.91c-1.82-1.41-3.64-2.81-5.46-4.22
			c-4.21-2.44-8.75-3.67-13.63-3.69c-3.72-0.14-7.18,0.63-10.4,2.33c-3.35,1.09-6.24,2.95-8.69,5.58c-2.63,2.45-4.49,5.34-5.58,8.69
			c-1.69,3.22-2.47,6.69-2.33,10.4c0.32,2.39,0.64,4.79,0.96,7.18c1.28,4.57,3.6,8.55,6.94,11.91c1.82,1.41,3.64,2.81,5.46,4.22
			C679.75,342.35,684.29,343.58,689.16,343.59L689.16,343.59z"/>
	</g>
</g>
<g>
	<g>
		<path class="st4" d="M686.86,356.94c3.72,0.14,7.18-0.63,10.4-2.33c3.35-1.09,6.24-2.95,8.69-5.58c2.63-2.45,4.49-5.34,5.58-8.69
			c1.69-3.22,2.47-6.69,2.33-10.4c-0.32-2.39-0.64-4.79-0.96-7.18c-1.28-4.57-3.6-8.55-6.94-11.91c-1.82-1.41-3.64-2.81-5.46-4.22
			c-4.21-2.44-8.75-3.67-13.63-3.69c-3.72-0.14-7.18,0.63-10.4,2.33c-3.35,1.09-6.24,2.95-8.69,5.58c-2.63,2.45-4.49,5.34-5.58,8.69
			c-1.69,3.22-2.47,6.69-2.33,10.4c0.32,2.39,0.64,4.79,0.96,7.18c1.28,4.57,3.6,8.55,6.94,11.91c1.82,1.41,3.64,2.81,5.46,4.22
			C677.45,355.69,681.99,356.92,686.86,356.94L686.86,356.94z"/>
	</g>
</g>
<g>
	<g>
		<path class="st5" d="M658.92,333.81c2.6,5.82,8.22,10.19,14.21,12.06c6.33,1.98,14.06,0.87,19.5-2.95
			c1.95-1.37,3.48-3.01,4.14-5.38c0.59-2.15,0.33-5.02-0.91-6.94c-1.24-1.92-3.08-3.61-5.38-4.14c-2.25-0.51-4.97-0.47-6.94,0.91
			c-0.85,0.6-1.74,1.09-2.68,1.51c0.72-0.3,1.43-0.6,2.15-0.91c-1.17,0.48-2.38,0.82-3.63,1.01c0.8-0.11,1.6-0.21,2.39-0.32
			c-1.37,0.18-2.74,0.19-4.11,0.01c0.8,0.11,1.6,0.21,2.39,0.32c-1.2-0.19-2.35-0.51-3.48-0.98c0.72,0.3,1.43,0.6,2.15,0.91
			c-1.07-0.48-2.07-1.06-3.01-1.76c0.61,0.47,1.21,0.94,1.82,1.41c-1.01-0.79-1.91-1.67-2.7-2.67c0.47,0.61,0.94,1.21,1.41,1.82
			c-0.71-0.93-1.3-1.92-1.78-2.99c-0.86-1.93-3.43-3.6-5.38-4.14c-2.15-0.59-5.02-0.33-6.94,0.91c-1.92,1.24-3.61,3.08-4.14,5.38
			c-0.11,0.8-0.21,1.6-0.32,2.39C657.7,330.89,658.11,332.4,658.92,333.81L658.92,333.81z"/>
	</g>
</g>
<g>
	<g>
		<path class="st4" d="M663.55,328.91c4.12,3.83,8.37,7.54,13.72,9.53c4.98,1.85,11.06,1.68,15.57-1.29
			c1.96-1.29,2.98-4.04,1.61-6.16c-1.32-2.05-3.98-2.89-6.16-1.61c-0.53,0.31-1.07,0.57-1.61,0.85c-0.6,0.3,0.59-0.17-0.05,0.01
			c-0.26,0.07-0.51,0.18-0.77,0.27c-0.58,0.19-1.17,0.34-1.77,0.46c-0.27,0.05-0.53,0.1-0.8,0.15c0.44-0.08,0.42-0.04-0.01-0.01
			c-0.61,0.04-1.22,0.07-1.83,0.06c-0.27,0-0.54-0.02-0.81-0.03c-0.09-0.01-0.94-0.07-0.41-0.02c0.6,0.06-0.49-0.09-0.61-0.11
			c-0.27-0.05-0.53-0.11-0.79-0.18c-0.57-0.14-1.12-0.37-1.69-0.52c-0.62-0.17,0.64,0.32,0.06,0.04c-0.22-0.11-0.44-0.2-0.66-0.31
			c-0.49-0.25-0.97-0.52-1.43-0.81c-0.26-0.16-1.31-0.92-0.58-0.35c-0.43-0.34-0.84-0.7-1.24-1.08c-0.35-0.34-0.69-0.69-1.01-1.05
			c-0.2-0.23-0.4-0.46-0.59-0.7c0.24,0.31,0.31,0.42,0.05,0.03c-0.27-0.41-0.54-0.81-0.78-1.23c-0.15-0.26-0.29-0.53-0.43-0.8
			c-0.09-0.19-0.45-1-0.07-0.09c-0.91-2.16-3.02-3.96-5.54-3.14c-2.08,0.67-4.12,3.21-3.14,5.54c2.44,5.82,6.72,10.22,12.64,12.53
			c5.95,2.32,12.97,1.5,18.43-1.7c-1.51-2.59-3.03-5.18-4.54-7.77c-0.42,0.28-0.85,0.51-1.29,0.75c0.92-0.5-0.4,0.13-0.65,0.2
			c-0.48,0.14-0.96,0.24-1.45,0.32c1.16-0.19-0.44-0.01-0.67-0.01c-0.51,0.01-1.01-0.03-1.51-0.06c-0.53-0.06-0.5-0.05,0.06,0.02
			c-0.25-0.04-0.5-0.09-0.75-0.14c-0.5-0.11-0.99-0.24-1.48-0.39c-0.12-0.04-1.42-0.49-0.89-0.29c0.51,0.19-0.82-0.39-0.96-0.46
			c-0.5-0.26-0.99-0.53-1.47-0.82c-0.48-0.29-0.95-0.6-1.42-0.92c-0.13-0.09-1.46-1.07-0.79-0.55c-1.8-1.38-3.45-2.95-5.11-4.49
			c-1.72-1.6-4.68-1.84-6.36,0C661.95,324.29,661.71,327.2,663.55,328.91L663.55,328.91z"/>
	</g>
</g>
<g>
	<g>
		<path class="st4" d="M661.33,327.9c3.27,4.46,7.8,7.02,12.9,8.93c5.38,2.02,12.15,3.13,16.49-1.65c1.58-1.74,1.85-4.67,0-6.36
			c-1.73-1.58-4.67-1.86-6.36,0c-0.15,0.17-0.31,0.34-0.48,0.49c0.48-0.34,0.51-0.37,0.09-0.09c-0.19,0.12-0.39,0.23-0.6,0.33
			c0.55-0.22,0.59-0.25,0.11-0.08c-0.22,0.07-0.45,0.12-0.67,0.17c-0.51,0.09-0.46,0.09,0.16-0.01c-0.29,0.19-1.2,0.01-1.53-0.01
			c0.97,0.05-0.65-0.13-0.86-0.18c-0.54-0.13-1.08-0.29-1.62-0.46c-0.91-0.29-1.8-0.61-2.69-0.95c-0.21-0.08-1.45-0.57-0.41-0.15
			c-0.44-0.18-0.87-0.38-1.3-0.59c-0.85-0.41-1.68-0.85-2.48-1.35c-0.4-0.25-0.78-0.52-1.16-0.78c-0.4-0.3-0.37-0.28,0.08,0.07
			c-0.18-0.15-0.35-0.3-0.53-0.45c-0.34-0.31-0.68-0.63-0.99-0.97c-0.15-0.16-1.07-1.36-0.4-0.44c-1.39-1.89-3.97-3.03-6.16-1.61
			C661.07,322.95,659.84,325.87,661.33,327.9L661.33,327.9z"/>
	</g>
</g>
<g>
	<g>
		<path class="st4" d="M682.38,339.64c3.72,0.14,7.18-0.63,10.4-2.33c3.35-1.09,6.24-2.95,8.69-5.58c2.63-2.45,4.49-5.34,5.58-8.69
			c1.69-3.22,2.47-6.69,2.33-10.4c-0.32-2.39-0.64-4.79-0.96-7.18c-1.28-4.57-3.6-8.55-6.94-11.91c-1.82-1.41-3.64-2.81-5.46-4.22
			c-4.21-2.44-8.75-3.67-13.63-3.69c-3.72-0.14-7.18,0.63-10.4,2.33c-3.35,1.09-6.24,2.95-8.69,5.58c-2.63,2.45-4.49,5.34-5.58,8.69
			c-1.69,3.22-2.47,6.69-2.33,10.4c0.32,2.39,0.64,4.79,0.96,7.18c1.28,4.57,3.6,8.55,6.94,11.91c1.82,1.41,3.64,2.81,5.46,4.22
			C672.96,338.4,677.5,339.63,682.38,339.64L682.38,339.64z"/>
	</g>
</g>
<path class="st1" d="M618.97,390.63c-1.49-6.43,1.66-13.43,7.93-16.55c4.93-2.45,10.95-2.09,15.54,0.62
	c5.12,3.03,6.62,7.88,6.94,9.06c0.34,1.15,1.8,6.45-1.32,11.55c-3.31,5.41-10.31,8.18-16.86,6.87
	C624.99,400.94,620.27,396.25,618.97,390.63z"/>
<path class="st6" d="M573.36,390.82c-0.47-0.5-10.72-11.55-6.67-25.94c2.85-10.12,11.58-17.7,22.23-19.27
	c1.63-0.6,13.85-4.89,25.94,2.22c10.89,6.41,13.64,17.36,14.08,19.27c1.3,3.2,6.13,16.08,0,25.2c-8.43,12.54-31.45,8.79-42.25,5.19
	C580.95,395.57,576.48,392.96,573.36,390.82z"/>
<path class="st6" d="M605.23,386.38"/>
<g>
	<g>
		<path class="st4" d="M584.12,366.31c2.59,7.77,7.28,14.75,13.57,20c1.47,1.23,3.61-0.88,2.12-2.12
			c-5.9-4.92-10.37-11.38-12.8-18.68C586.4,363.69,583.5,364.47,584.12,366.31L584.12,366.31z"/>
	</g>
</g>
<g>
	<g>
		<path class="st4" d="M598.56,376.96c4.71,0,9.22-4.14,9-9c-0.22-4.88-3.95-9-9-9c-4.71,0-9.22,4.14-9,9
			C589.78,372.84,593.52,376.96,598.56,376.96L598.56,376.96z"/>
	</g>
</g>
<g>
	<g>
		<path class="st4" d="M605.39,371.88c3.46-5.58,3.45-13.18,0.05-18.8c-1.63-2.69-4.07-5.14-6.93-6.51
			c-2.97-1.42-6.29-2.37-9.62-2.04c-3.71,0.37-6.92,1.45-9.88,3.74c-2.25,1.74-4.19,3.95-5.41,6.54
			c-2.36,5.01-3.15,10.38-3.03,15.89c0.13,6.49,1.22,13.07,3.3,19.22c5.01-2.92,10.03-5.84,15.04-8.76
			c-1.75-1.83-3.49-3.68-5.05-5.67c0.47,0.61,0.94,1.21,1.41,1.82c-1.36-1.77-2.54-3.65-3.42-5.71c0.3,0.72,0.6,1.43,0.91,2.15
			c-0.53-1.34-0.9-2.71-1.11-4.13c0.11,0.8,0.21,1.6,0.32,2.39c-0.15-1.29-0.16-2.56,0-3.85c-0.11,0.8-0.21,1.6-0.32,2.39
			c0.16-1.01,0.42-1.97,0.81-2.92c-0.3,0.72-0.6,1.43-0.91,2.15c0.37-0.82,0.81-1.56,1.36-2.27c-0.47,0.61-0.94,1.21-1.41,1.82
			c0.54-0.66,1.14-1.25,1.8-1.79c-0.61,0.47-1.21,0.94-1.82,1.41c1.07-0.82,2.23-1.46,3.47-2c-0.72,0.3-1.43,0.6-2.15,0.91
			c2.27-0.94,4.66-1.51,7.06-2.01c3.09-0.65,6.18-1.28,9.31-1.7c-0.8,0.11-1.6,0.21-2.39,0.32c3.47-0.44,6.96-0.61,10.43-0.17
			c-0.8-0.11-1.6-0.21-2.39-0.32c2.24,0.31,4.42,0.88,6.52,1.74c-0.72-0.3-1.43-0.6-2.15-0.91c1.72,0.74,3.32,1.65,4.81,2.79
			c-0.61-0.47-1.21-0.94-1.82-1.41c1.06,0.85,2.01,1.79,2.86,2.84c-0.47-0.61-0.94-1.21-1.41-1.82c0.81,1.06,1.49,2.18,2.02,3.4
			c-0.3-0.72-0.6-1.43-0.91-2.15c0.54,1.31,0.9,2.65,1.1,4.05c-0.11-0.8-0.21-1.6-0.32-2.39c0.19,1.53,0.18,3.05,0,4.57
			c0.11-0.8,0.21-1.6,0.32-2.39c-0.23,1.66-0.66,3.25-1.29,4.8c0.3-0.72,0.6-1.43,0.91-2.15c-0.61,1.43-1.37,2.76-2.3,4.01
			c0.47-0.61,0.94-1.21,1.41-1.82c-0.98,1.26-2.09,2.37-3.35,3.35c0.61-0.47,1.21-0.94,1.82-1.41c-1.41,1.06-2.92,1.92-4.55,2.61
			c0.72-0.3,1.43-0.6,2.15-0.91c-1.76,0.71-3.58,1.2-5.46,1.48c0.8-0.11,1.6-0.21,2.39-0.32c-2.15,0.29-4.3,0.3-6.45,0.04
			c0.8,0.11,1.6,0.21,2.39,0.32c-2-0.28-3.93-0.78-5.8-1.54c0.72,0.3,1.43,0.6,2.15,0.91c-1.73-0.73-3.33-1.64-4.83-2.78
			c0.61,0.47,1.21,0.94,1.82,1.41c-1.16-0.92-2.2-1.94-3.12-3.1c0.47,0.61,0.94,1.21,1.41,1.82c-0.74-0.98-1.36-2.02-1.86-3.14
			c0.3,0.72,0.6,1.43,0.91,2.15c-0.46-1.12-0.77-2.25-0.94-3.45c0.11,0.8,0.21,1.6,0.32,2.39c-0.13-1.18-0.12-2.34,0.02-3.52
			c-0.11,0.8-0.21,1.6-0.32,2.39c0.2-1.39,0.58-2.73,1.12-4.03c-0.3,0.72-0.6,1.43-0.91,2.15c0.53-1.19,1.17-2.3,1.95-3.34
			c-0.47,0.61-0.94,1.21-1.41,1.82c0.8-1.02,1.69-1.93,2.71-2.73c-0.61,0.47-1.21,0.94-1.82,1.41c0.86-0.64,1.77-1.18,2.75-1.62
			c-0.72,0.3-1.43,0.6-2.15,0.91c1.02-0.42,2.06-0.72,3.14-0.88c-0.8,0.11-1.6,0.21-2.39,0.32c1.21-0.15,2.4-0.15,3.61,0
			c-0.8-0.11-1.6-0.21-2.39-0.32c1.32,0.19,2.58,0.55,3.81,1.06c-0.72-0.3-1.43-0.6-2.15-0.91c1.23,0.54,2.37,1.21,3.44,2.01
			c-0.61-0.47-1.21-0.94-1.82-1.41c1.05,0.83,1.98,1.75,2.8,2.81c-0.47-0.61-0.94-1.21-1.41-1.82c0.66,0.89,1.22,1.82,1.67,2.83
			c-0.3-0.72-0.6-1.43-0.91-2.15c0.43,1.02,0.74,2.06,0.9,3.15c-0.11-0.8-0.21-1.6-0.32-2.39c0.1,0.84,0.09,1.67-0.01,2.51
			c0.11-0.8,0.21-1.6,0.32-2.39c-0.13,0.84-0.34,1.63-0.67,2.42c0.3-0.72,0.6-1.43,0.91-2.15c-0.25,0.55-0.55,1.05-0.92,1.54
			c0.47-0.61,0.94-1.21,1.41-1.82c-0.25,0.3-0.51,0.56-0.81,0.81c0.61-0.47,1.21-0.94,1.82-1.41c-0.31,0.23-0.61,0.42-0.96,0.59
			c0.72-0.3,1.43-0.6,2.15-0.91c-0.36,0.15-0.72,0.25-1.11,0.32c0.8-0.11,1.6-0.21,2.39-0.32c-0.48,0.05-0.93,0.04-1.41-0.02
			c0.8,0.11,1.6,0.21,2.39,0.32c-0.37-0.08-0.7-0.17-1.06-0.3c0.72,0.3,1.43,0.6,2.15,0.91c-0.59-0.26-1.11-0.57-1.63-0.95
			c0.61,0.47,1.21,0.94,1.82,1.41c-1.28-1-2.3-2.23-3.29-3.51c0.47,0.61,0.94,1.21,1.41,1.82c-2.55-3.35-4.67-6.99-6.32-10.87
			c0.3,0.72,0.6,1.43,0.91,2.15c-0.28-0.67-0.54-1.34-0.8-2.02c-0.84-2.25-2-4.13-4.14-5.38c-1.93-1.13-4.77-1.61-6.94-0.91
			c-2.18,0.7-4.28,2.05-5.38,4.14c-1.07,2.03-1.75,4.69-0.91,6.94c1.85,4.95,4.13,9.72,7.24,14c1.63,2.24,3.3,4.61,5.47,6.37
			c1.87,1.52,3.6,2.68,5.95,3.39c2.28,0.69,4.6,0.64,6.91,0.2c3.57-0.69,6.42-3.18,8.43-6.09c1.74-2.53,2.42-5.58,2.67-8.58
			c0.48-5.59-2.17-10.89-5.65-15.05c-3.02-3.61-7.74-6.39-12.32-7.44c-5.5-1.27-11.18-0.65-16.14,2.12
			c-9.05,5.05-13.79,16.43-11.25,26.41c1.47,5.76,5.37,10.28,10.05,13.72c4.36,3.2,9.58,4.67,14.87,5.32
			c4.61,0.56,9.62-0.01,13.95-1.7c5.68-2.21,10.28-5.56,13.84-10.53c2.99-4.17,4.48-9.39,4.73-14.48
			c0.25-4.95-1.13-10.51-4.03-14.57c-2.02-2.82-4.05-4.83-6.83-6.89c-2.14-1.59-4.54-2.64-7.01-3.62
			c-4.72-1.86-10.08-2.41-15.12-2.12c-5.67,0.32-11.33,1.43-16.86,2.67c-5.12,1.15-10.19,3.08-14.04,6.77
			c-4.35,4.17-6.45,10.53-5.78,16.48c0.4,3.57,1.25,6.54,2.84,9.79c1.26,2.57,3.05,4.85,4.84,7.07c1.42,1.75,2.97,3.38,4.53,5.01
			c2.65,2.77,7.63,3.52,10.91,1.41c3.23-2.08,5.44-6.3,4.14-10.16c-1.14-3.37-1.96-6.83-2.47-10.36c0.11,0.8,0.21,1.6,0.32,2.39
			c-0.55-4.07-0.78-8.27-0.23-12.35c-0.11,0.8-0.21,1.6-0.32,2.39c0.24-1.66,0.63-3.27,1.25-4.83c-0.3,0.72-0.6,1.43-0.91,2.15
			c0.45-1.06,1-2.05,1.7-2.97c-0.47,0.61-0.94,1.21-1.41,1.82c0.51-0.62,1.05-1.18,1.67-1.68c-0.61,0.47-1.21,0.94-1.82,1.41
			c0.66-0.5,1.33-0.89,2.09-1.22c-0.72,0.3-1.43,0.6-2.15,0.91c0.65-0.25,1.31-0.42,2-0.54c-0.8,0.11-1.6,0.21-2.39,0.32
			c0.93-0.12,1.84-0.12,2.77-0.01c-0.8-0.11-1.6-0.21-2.39-0.32c0.81,0.13,1.57,0.34,2.34,0.64c-0.72-0.3-1.43-0.6-2.15-0.91
			c0.75,0.33,1.43,0.72,2.08,1.22c-0.61-0.47-1.21-0.94-1.82-1.41c0.54,0.45,1.01,0.93,1.45,1.48c-0.47-0.61-0.94-1.21-1.41-1.82
			c0.41,0.57,0.75,1.15,1.04,1.79c-0.3-0.72-0.6-1.43-0.91-2.15c0.36,0.87,0.59,1.74,0.71,2.67c-0.11-0.8-0.21-1.6-0.32-2.39
			c0.08,0.82,0.07,1.61-0.02,2.42c0.11-0.8,0.21-1.6,0.32-2.39c-0.13,0.81-0.33,1.57-0.64,2.33c0.3-0.72,0.6-1.43,0.91-2.15
			c-0.19,0.42-0.41,0.82-0.65,1.22c-2.48,4.01-0.99,10.08,3.23,12.31C597.48,377.44,602.74,376.16,605.39,371.88L605.39,371.88z"/>
	</g>
</g>
<g>
	<g>
		<path class="st5" d="M605.08,356.95c0.79,1.52,1.75,3.12,2.27,4.75c-0.09-0.21-0.17-0.42-0.26-0.62c0.11,0.27,0.22,0.54,0.33,0.81
			c0.14,0.34,0.27,0.68,0.4,1.02c0.29,0.75,0.56,1.51,0.82,2.27c1.12,3.25,1.99,6.59,2.62,9.98c0.15,0.79,0.27,1.59,0.4,2.38
			c0.25,1.5-0.16-1.36,0.03,0.15c0.05,0.44,0.1,0.87,0.15,1.31c0.18,1.67,0.29,3.36,0.35,5.04c0.11,3.44-0.04,6.88-0.43,10.3
			c-0.29,2.48,2.06,5.25,4.4,5.79c2.45,0.56,5.6-0.32,6.78-2.76c6.08-12.67,4.91-28.44-3.31-39.95c-2.56-3.58-5.47-6.51-9.01-9.11
			c-1.18-0.87-3.28-0.98-4.62-0.6c-1.39,0.38-2.9,1.46-3.59,2.76c-1.65,3.13-0.55,6.21,2.15,8.21c0.5,0.37,0.37,0.27-0.39-0.31
			c0.18,0.14,0.36,0.29,0.54,0.43c0.35,0.29,0.7,0.59,1.04,0.9c0.68,0.62,1.33,1.26,1.95,1.94c0.31,0.34,0.61,0.68,0.91,1.03
			c0.34,0.4,0.99,1.65,0.13,0.13c0.44,0.78,1.08,1.5,1.56,2.26c0.93,1.47,1.54,3.09,2.41,4.57c-0.91-1.54-0.14-0.32,0.04,0.17
			c0.16,0.43,0.32,0.87,0.46,1.3c0.29,0.87,0.55,1.76,0.77,2.65c0.22,0.89,0.41,1.8,0.56,2.71c0.28,1.68-0.08-0.97,0.03,0.11
			c0.05,0.46,0.1,0.92,0.13,1.37c0.13,1.72,0.14,3.45,0.01,5.16c-0.03,0.46-0.09,0.91-0.13,1.37c-0.11,1.09,0.26-1.57-0.03,0.11
			c-0.15,0.9-0.35,1.8-0.58,2.69c-0.23,0.89-0.51,1.76-0.82,2.63c-0.16,0.45-0.91,1.8-0.03,0.17c-0.22,0.4-0.38,0.84-0.58,1.26
			c3.73,1.01,7.45,2.02,11.18,3.03c1.72-14.9-1.39-30.19-8.32-43.45c-1.46-2.79-5.57-3.85-8.21-2.15
			C604.39,350.57,603.52,353.97,605.08,356.95L605.08,356.95z"/>
	</g>
</g>
</svg>
